<svg xmlns="http://www.w3.org/2000/svg" viewBox="0 0 126.935 126.935"><path d="M21.528 104.172a8.18 8.18 0 0 1-8.182 8.181 8.18 8.18 0 0 1-8.182-8.181V80.436a8.182 8.182 0 1 1 16.364 0v23.736z" fill="#ff1a1a"/><path d="M13.346 72.254a8.182 8.182 0 0 0-8.182 8.183v1.61c0 4.519 3.662 8.181 8.182 8.181s8.182-3.662 8.182-8.181v-1.61a8.181 8.181 0 0 0-8.182-8.183z" fill="#ff7676"/><path d="M13.346 113.853c-5.339 0-9.682-4.343-9.682-9.681V80.437c0-5.339 4.343-9.683 9.682-9.683s9.682 4.344 9.682 9.683v23.735c0 5.338-4.343 9.681-9.682 9.681zm0-40.099a6.69 6.69 0 0 0-6.682 6.683v23.735c0 3.684 2.997 6.681 6.682 6.681s6.682-2.997 6.682-6.681V80.437a6.69 6.69 0 0 0-6.682-6.683z" fill="#33363a"/><path d="M121.77 104.172a8.18 8.18 0 0 1-8.183 8.181 8.18 8.18 0 0 1-8.181-8.181V80.436a8.181 8.181 0 0 1 8.181-8.183 8.182 8.182 0 0 1 8.183 8.183v23.736z" fill="#ff1a1a"/><path d="M113.587 72.254a8.181 8.181 0 0 0-8.181 8.183v1.61a8.18 8.18 0 0 0 8.181 8.181 8.18 8.18 0 0 0 8.183-8.181v-1.61a8.182 8.182 0 0 0-8.183-8.183z" fill="#ff7676"/><path d="M113.587 113.853c-5.338 0-9.681-4.343-9.681-9.681V80.437c0-5.339 4.343-9.683 9.681-9.683 5.339 0 9.683 4.344 9.683 9.683v23.735c0 5.338-4.344 9.681-9.683 9.681zm0-40.099c-3.684 0-6.681 2.998-6.681 6.683v23.735a6.688 6.688 0 0 0 6.681 6.681c3.685 0 6.683-2.997 6.683-6.681V80.437a6.69 6.69 0 0 0-6.683-6.683z" fill="#33363a"/><path d="M66.922 11.39H60.01c-24.771 0-44.926 20.156-44.926 44.928v51.838c0 9.543 7.734 17.279 17.279 17.279h62.205c9.545 0 17.281-7.736 17.281-17.279V56.317c.001-24.771-20.154-44.927-44.927-44.927z" fill="#8de4ff"/><path d="M66.922 23.593H60.01c-24.771 0-44.926 20.156-44.926 44.928v39.635c0 9.543 7.734 17.279 17.279 17.279h62.205c9.545 0 17.281-7.736 17.281-17.279V68.52c.001-24.771-20.154-44.927-44.927-44.927z" fill="#0af"/><path d="M95.631 96.541c0 8.091-6.559 14.652-14.65 14.652H45.954c-8.09 0-14.65-6.562-14.65-14.652V85.552c0-8.09 6.561-14.648 14.65-14.648h35.027c8.092 0 14.65 6.559 14.65 14.648v10.989z" fill="#ff1a1a"/><path d="M45.954 70.903c-5.369 0-10.051 2.896-12.603 7.205 2.552 4.31 7.233 7.209 12.603 7.209h35.027c5.369 0 10.051-2.899 12.601-7.209-2.551-4.309-7.232-7.205-12.601-7.205H45.954z" fill="#ff7676"/><path d="M95.571 58.81a1.5 1.5 0 0 1-1.5-1.5c0-15.61-12.7-28.31-28.312-28.31h-4.585c-15.61 0-28.311 12.7-28.311 28.31a1.5 1.5 0 1 1-3 0C29.864 40.045 43.91 26 61.174 26h4.585c17.266 0 31.312 14.045 31.312 31.31a1.5 1.5 0 0 1-1.5 1.5zM95.85 68.479a2.338 2.338 0 0 1-2.334-2.336V63.51c0-1.287 1.047-2.334 2.334-2.334s2.334 1.047 2.334 2.334v2.633a2.337 2.337 0 0 1-2.334 2.336z" fill="#33363a"/><path d="M78.495 11.35C76.623 4.808 70.602 0 63.467 0 56.333 0 50.311 4.807 48.44 11.35c-20.02 5.154-34.856 23.36-34.856 44.967v51.838c0 10.355 8.425 18.779 18.779 18.779h62.205c10.356 0 18.781-8.424 18.781-18.779V56.317c.001-21.606-14.834-39.812-34.854-44.967zM63.467 3c5.185 0 9.647 3.141 11.594 7.619a46.459 46.459 0 0 0-8.139-.729H60.01c-2.777 0-5.493.259-8.137.729C53.821 6.141 58.282 3 63.467 3zm46.883 105.155c0 8.701-7.079 15.779-15.781 15.779H32.364c-8.701 0-15.779-7.079-15.779-15.779V56.317c0-19.735 13.236-36.426 31.294-41.69-.022.337-.051.672-.051 1.015a1.5 1.5 0 1 0 3 0c0-.612.059-1.21.143-1.799a43.455 43.455 0 0 1 9.041-.953h6.912c3.101 0 6.124.333 9.042.954.084.589.143 1.186.143 1.798a1.5 1.5 0 1 0 3 0c0-.342-.03-.677-.051-1.014 18.057 5.265 31.294 21.955 31.294 41.69v51.837z" fill="#33363a"/><g fill="#33363a"><path d="M80.981 69.403H45.954c-8.905 0-16.15 7.244-16.15 16.148V96.54c0 8.906 7.245 16.152 16.15 16.152h35.027c8.905 0 16.15-7.246 16.15-16.152V85.552c0-8.905-7.245-16.149-16.15-16.149zm0 40.29H45.954c-4.805 0-9.004-2.599-11.299-6.457h1.98a1.5 1.5 0 1 0 0-3h-3.294a13.116 13.116 0 0 1-.538-3.695V85.552c0-7.25 5.899-13.148 13.15-13.148H80.98c7.251 0 13.15 5.898 13.15 13.148v10.989c0 1.284-.193 2.522-.538 3.695h-3.294a1.5 1.5 0 1 0 0 3h1.98c-2.293 3.859-6.492 6.457-11.297 6.457z"/><path d="M51.967 100.236h-7.666a1.5 1.5 0 1 0 0 3h7.666a1.5 1.5 0 1 0 0-3zM67.3 100.236h-7.666a1.5 1.5 0 1 0 0 3H67.3a1.5 1.5 0 1 0 0-3zM82.632 100.236h-7.666a1.5 1.5 0 1 0 0 3h7.666a1.5 1.5 0 1 0 0-3z"/></g></svg>