<svg xmlns="http://www.w3.org/2000/svg" viewBox="0 0 126.218 126.218"><path d="M82.301 65.539c-3.857 6.605-11.004 11.066-19.191 11.066s-15.334-4.461-19.191-11.066H11.151c5.142 23.963 26.481 41.986 51.958 41.986s46.815-18.023 51.957-41.986H82.301z" fill="#ffbe08"/><path d="M63.109 76.605c-8.187 0-15.334-4.461-19.191-11.066H15.791C24.6 82.73 42.498 94.531 63.109 94.531c20.61 0 38.509-11.801 47.318-28.992H82.301c-3.858 6.606-11.004 11.066-19.192 11.066z" fill="#ff960b"/><path d="M63.109 109.025c-25.589 0-48.057-18.156-53.425-43.172a1.502 1.502 0 0 1 1.467-1.815h32.767a1.5 1.5 0 0 1 1.295.743c3.718 6.368 10.576 10.323 17.896 10.323s14.178-3.955 17.896-10.323a1.5 1.5 0 0 1 1.295-.743h32.766a1.5 1.5 0 0 1 1.467 1.815c-5.367 25.016-27.835 43.172-53.424 43.172zM13.042 67.039c5.745 22.7 26.506 38.986 50.067 38.986s44.322-16.286 50.066-38.986H83.144c-4.343 6.848-11.94 11.066-20.034 11.066s-15.691-4.219-20.034-11.066H13.042z" fill="#33363a"/><path d="M43.918 43.486c3.857-6.604 11.004-11.066 19.191-11.066 8.188 0 15.334 4.463 19.191 11.066h32.766C109.925 19.525 88.586 1.5 63.109 1.5S16.293 19.525 11.151 43.486h32.767z" fill="#ffbe08"/><path d="M63.109 32.42c8.188 0 15.334 4.463 19.191 11.066h28.127c-8.81-17.193-26.708-28.992-47.318-28.992-20.611 0-38.51 11.799-47.318 28.992h28.127c3.857-6.603 11.004-11.066 19.191-11.066z" fill="#ff960b"/><path d="M115.066 44.986H82.301a1.5 1.5 0 0 1-1.295-.743c-3.72-6.368-10.577-10.323-17.897-10.323s-14.177 3.955-17.896 10.323a1.5 1.5 0 0 1-1.295.743H11.151a1.5 1.5 0 0 1-1.467-1.815C15.053 18.156 37.521 0 63.109 0c25.588 0 48.056 18.156 53.424 43.172a1.502 1.502 0 0 1-1.467 1.814zm-31.923-3h30.033C107.431 19.286 86.669 3 63.109 3S18.787 19.286 13.042 41.986h30.034C47.42 35.139 55.017 30.92 63.109 30.92s15.69 4.219 20.034 11.066z" fill="#33363a"/><path d="M74.692 54.512c0 6.402-5.185 11.586-11.583 11.586s-11.586-5.184-11.586-11.586c0-6.396 5.188-11.586 11.586-11.586s11.583 5.189 11.583 11.586z" fill="#ffbe08"/><path d="M51.523 54.512c0-6.396 5.188-11.586 11.586-11.586s11.583 5.189 11.583 11.586" fill="#ff960b"/><path d="M63.109 67.598c-7.216 0-13.086-5.87-13.086-13.086s5.87-13.086 13.086-13.086c7.214 0 13.083 5.87 13.083 13.086s-5.869 13.086-13.083 13.086zm0-23.172c-5.562 0-10.086 4.524-10.086 10.086s4.524 10.086 10.086 10.086c5.56 0 10.083-4.524 10.083-10.086s-4.523-10.086-10.083-10.086zM41.013 56.012H24.645a1.5 1.5 0 1 1 0-3h16.368a1.5 1.5 0 1 1 0 3zM15.219 56.007c-.4 0-.78-.159-1.06-.43-.28-.28-.44-.67-.44-1.07 0-.39.16-.779.43-1.06.57-.56 1.57-.56 2.13.01a1.485 1.485 0 0 1 0 2.111c-.28.28-.67.439-1.06.439zM6.629 56.007a1.498 1.498 0 0 1-1.5-1.5c0-.39.16-.779.44-1.06.55-.56 1.56-.56 2.12.01.28.271.44.66.44 1.05a1.503 1.503 0 0 1-1.5 1.5zM101.573 56.012H85.206a1.5 1.5 0 1 1 0-3h16.367a1.5 1.5 0 1 1 0 3zM110.999 56.007c-.39 0-.78-.159-1.06-.439-.28-.271-.44-.66-.44-1.061 0-.39.16-.779.44-1.06.56-.56 1.57-.56 2.12.01.28.271.44.66.44 1.05a1.503 1.503 0 0 1-1.5 1.5zM119.589 56.007a1.5 1.5 0 0 1-1.06-2.56c.56-.56 1.57-.56 2.13.01.27.271.43.66.43 1.05a1.503 1.503 0 0 1-1.5 1.5z" fill="#33363a"/><path d="M83.275 100.193a2.737 2.737 0 0 0-2.217-1.869l-10.701-1.557-4.785-9.699a2.747 2.747 0 0 0-4.926 0l-4.786 9.699-10.701 1.557a2.74 2.74 0 0 0-2.218 1.869 2.751 2.751 0 0 0 .695 2.816l7.744 7.545-1.829 10.658a2.748 2.748 0 0 0 1.093 2.689c.85.611 1.969.695 2.895.205l9.57-5.029 9.57 5.029a2.747 2.747 0 0 0 2.892-.205 2.746 2.746 0 0 0 1.093-2.689l-1.829-10.658 7.744-7.545a2.743 2.743 0 0 0 .696-2.816z" fill="#ffd00b"/><path d="M74.836 110.555l6.254-6.096c-.011 0-.021-.004-.031-.006l-10.701-1.557-4.785-9.697a2.744 2.744 0 0 0-2.463-1.529 2.742 2.742 0 0 0-2.463 1.529l-4.786 9.697-10.701 1.557c-.011.002-.021.006-.032.006l6.254 6.096-.9 5.25.9.879-1.17 6.816c.131.146.271.283.433.402.85.611 1.969.695 2.895.205l9.57-5.029 9.57 5.029a2.747 2.747 0 0 0 2.892-.205c.162-.119.304-.256.434-.402l-1.17-6.816.9-.879-.9-5.25z" fill="#ffbe08"/><path d="M52.258 125.93a4.248 4.248 0 0 1-2.489-.81 4.23 4.23 0 0 1-1.695-4.162l1.695-9.88-7.179-6.994a4.227 4.227 0 0 1-1.076-4.352 4.218 4.218 0 0 1 3.432-2.893l9.918-1.443 4.437-8.992a4.272 4.272 0 0 1 3.808-2.365c1.604 0 3.099.929 3.808 2.365l4.436 8.992 9.921 1.443a4.21 4.21 0 0 1 3.428 2.892 4.221 4.221 0 0 1-1.076 4.353l-7.179 6.994 1.696 9.881a4.226 4.226 0 0 1-1.688 4.156c-1.282.933-3.072 1.062-4.477.318l-8.869-4.661-8.873 4.663a4.215 4.215 0 0 1-1.978.495zm10.851-38.891c-.472 0-.91.271-1.117.692l-4.787 9.7a1.502 1.502 0 0 1-1.129.82l-10.701 1.557a1.238 1.238 0 0 0-1.007.849c-.146.454-.026.945.316 1.278l7.744 7.545a1.5 1.5 0 0 1 .432 1.328l-1.829 10.658a1.245 1.245 0 1 0 1.807 1.316l9.575-5.032a1.504 1.504 0 0 1 1.396 0l9.57 5.029a1.25 1.25 0 0 0 1.313-.091c.387-.281.578-.75.497-1.221l-1.83-10.659a1.5 1.5 0 0 1 .432-1.328l7.744-7.545a1.24 1.24 0 0 0 .315-1.279v-.001a1.235 1.235 0 0 0-1.002-.847l-10.704-1.557a1.499 1.499 0 0 1-1.129-.82l-4.785-9.699a1.262 1.262 0 0 0-1.121-.693z" fill="#33363a"/><g><path d="M41.578 109.344a1.74 1.74 0 0 0-1.406-1.186l-6.788-.988-3.036-6.152a1.74 1.74 0 0 0-1.562-.969c-.663 0-1.271.375-1.563.969l-3.035 6.152-6.788.988a1.744 1.744 0 0 0-.965 2.973l4.912 4.785-1.161 6.76a1.741 1.741 0 1 0 2.528 1.836l6.071-3.189 6.07 3.189c.255.137.533.201.812.201.36 0 .72-.109 1.023-.33a1.743 1.743 0 0 0 .693-1.707l-1.16-6.76 4.912-4.785a1.742 1.742 0 0 0 .443-1.787z" fill="#ffd00b"/><path d="M36.225 115.916l3.967-3.865c-.007 0-.013-.004-.019-.004l-6.788-.988-3.036-6.152a1.74 1.74 0 0 0-1.562-.969c-.663 0-1.271.375-1.563.969l-3.035 6.152-6.788.988c-.007 0-.014.004-.019.004l3.967 3.865-.572 3.33.572.557-.742 4.324c.082.094.172.18.274.256a1.741 1.741 0 0 0 1.835.129l6.071-3.189 6.07 3.189c.255.137.533.201.812.201a1.676 1.676 0 0 0 1.298-.586l-.742-4.324.571-.557-.571-3.33z" fill="#ffbe08"/><path d="M21.904 126.218a3.25 3.25 0 0 1-1.898-.616 3.227 3.227 0 0 1-1.297-3.18l1.028-5.982-4.347-4.234a3.221 3.221 0 0 1-.822-3.323 3.263 3.263 0 0 1 2.622-2.209l6.003-.874 2.687-5.445a3.26 3.26 0 0 1 2.908-1.805 3.26 3.26 0 0 1 2.908 1.807l2.686 5.443 6.008.875a3.261 3.261 0 0 1 2.617 2.206v.002a3.225 3.225 0 0 1-.822 3.324l-4.347 4.233 1.027 5.982a3.265 3.265 0 0 1-1.29 3.174c-.983.716-2.363.81-3.426.238l-5.361-2.817-5.374 2.823a3.21 3.21 0 0 1-1.51.378zm6.882-24.669a.242.242 0 0 0-.216.131l-3.036 6.154a1.5 1.5 0 0 1-1.129.82l-6.788.988a.243.243 0 0 0-.136.412l4.914 4.787a1.5 1.5 0 0 1 .432 1.328l-1.161 6.76a.245.245 0 0 0 .097.24c.071.051.168.06.247.019l6.08-3.194a1.504 1.504 0 0 1 1.396 0l6.07 3.189c.077.04.152.061.255-.015a.242.242 0 0 0 .097-.237l-1.161-6.762a1.5 1.5 0 0 1 .432-1.328l4.912-4.785a.248.248 0 0 0 .062-.249.238.238 0 0 0-.191-.164l-6.792-.989a1.502 1.502 0 0 1-1.129-.82l-3.036-6.152a.249.249 0 0 0-.219-.133z" fill="#33363a"/><g><path d="M110.225 109.344a1.74 1.74 0 0 0-1.407-1.186l-6.788-.988-3.035-6.152a1.74 1.74 0 0 0-1.563-.969c-.663 0-1.27.375-1.563.969l-3.035 6.152-6.787.988a1.741 1.741 0 0 0-.966 2.973l4.912 4.785-1.161 6.76a1.747 1.747 0 0 0 .693 1.707c.539.387 1.25.441 1.836.129l6.07-3.189 6.07 3.189c.256.137.533.201.812.201a1.738 1.738 0 0 0 1.717-2.037l-1.16-6.76 4.912-4.785a1.746 1.746 0 0 0 .443-1.787z" fill="#ffd00b"/><path d="M104.871 115.916l3.967-3.865c-.008 0-.014-.004-.021-.004l-6.788-.988-3.035-6.152a1.74 1.74 0 0 0-1.563-.969c-.663 0-1.27.375-1.563.969l-3.035 6.152-6.787.988c-.008 0-.014.004-.021.004l3.967 3.865-.571 3.33.571.557-.742 4.324c.083.094.172.18.274.256.539.387 1.25.441 1.836.129l6.07-3.189 6.07 3.189c.256.137.533.201.812.201.36 0 .72-.109 1.024-.33a1.76 1.76 0 0 0 .275-.256l-.742-4.324.57-.557-.568-3.33z" fill="#ffbe08"/><path d="M90.55 126.218a3.254 3.254 0 0 1-1.899-.616 3.227 3.227 0 0 1-1.297-3.18l1.028-5.982-4.347-4.234a3.223 3.223 0 0 1-.822-3.323 3.224 3.224 0 0 1 2.623-2.209l6.002-.874 2.687-5.445c.549-1.113 1.664-1.805 2.908-1.805s2.358.691 2.908 1.805l2.687 5.445 6.008.875a3.262 3.262 0 0 1 2.619 2.21 3.228 3.228 0 0 1-.822 3.321l-4.348 4.234 1.027 5.982a3.226 3.226 0 0 1-1.29 3.174c-.988.716-2.36.809-3.425.239l-5.363-2.818-5.373 2.823a3.217 3.217 0 0 1-1.511.378zm6.882-24.669a.241.241 0 0 0-.217.133l-3.035 6.152a1.5 1.5 0 0 1-1.129.82l-6.787.988a.244.244 0 0 0-.198.167.245.245 0 0 0 .062.246l4.913 4.786a1.5 1.5 0 0 1 .432 1.328l-1.161 6.76a.24.24 0 1 0 .345.259l6.079-3.194a1.504 1.504 0 0 1 1.396 0l6.07 3.189c.049.027.135.074.258-.016a.248.248 0 0 0 .095-.238l-1.16-6.76a1.5 1.5 0 0 1 .432-1.328l4.912-4.785a.249.249 0 0 0 .061-.251.237.237 0 0 0-.192-.162l-6.792-.989a1.5 1.5 0 0 1-1.129-.82l-3.035-6.152a.247.247 0 0 0-.22-.133z" fill="#33363a"/></g></g></svg>