<svg xmlns="http://www.w3.org/2000/svg" viewBox="0 0 126.924 126.924"><path d="M109.66 29.78a3.094 3.094 0 0 1-3.094 3.094H59.254a3.095 3.095 0 0 1 0-6.189h47.312a3.095 3.095 0 0 1 3.094 3.095z" fill="#7bc7ff"/><path d="M106.566 34.374H59.254c-2.533 0-4.594-2.061-4.594-4.594s2.061-4.595 4.594-4.595h47.312c2.533 0 4.594 2.062 4.594 4.595s-2.061 4.594-4.594 4.594zm-47.312-6.188a1.596 1.596 0 0 0 0 3.189h47.312a1.596 1.596 0 0 0 0-3.189H59.254z" fill="#33363a"/><path d="M86.346 32.309c0 10.335-8.377 18.712-18.711 18.712h-8.346c-10.334 0-18.711-8.377-18.711-18.712V27.37c0-10.334 8.377-18.711 18.711-18.711h8.346c10.334 0 18.711 8.377 18.711 18.711v4.939z" fill="#ba8663"/><path d="M86.346 37.059c0 10.335-8.377 18.712-18.711 18.712h-8.346c-10.334 0-18.711-8.377-18.711-18.712V32.12c0-10.334 8.377-18.711 18.711-18.711h8.346c10.334 0 18.711 8.377 18.711 18.711v4.939z" fill="#a57555"/><path d="M67.635 52.521h-8.346c-11.145 0-20.211-9.067-20.211-20.212V27.37c0-11.145 9.066-20.211 20.211-20.211h8.346c11.145 0 20.211 9.066 20.211 20.211v4.938c0 11.145-9.067 20.213-20.211 20.213zm-8.346-42.362c-9.49 0-17.211 7.721-17.211 17.211v4.938c0 9.49 7.721 17.212 17.211 17.212h8.346c9.49 0 17.211-7.722 17.211-17.212V27.37c0-9.49-7.721-17.211-17.211-17.211h-8.346z" fill="#33363a"/><path fill="#4b6466" d="M63.463 70.753L1.5 89.36v32.61h123.924V89.36z"/><path fill="#7bc7ff" d="M63.463 70.753L1.5 89.36v32.61h123.924V89.36z"/><path fill="#12b2b2" d="M63.463 87.939L1.5 89.36v32.61h123.924V89.36z"/><path fill="#0086ff" d="M63.463 87.939L1.5 89.36v32.61h123.924V89.36z"/><path d="M125.424 123.47H1.5a1.5 1.5 0 0 1-1.5-1.5V89.36c0-.662.434-1.246 1.068-1.437l61.963-18.607a1.51 1.51 0 0 1 .863 0l61.961 18.607a1.5 1.5 0 0 1 1.068 1.437v32.609a1.5 1.5 0 0 1-1.499 1.501zM3 120.47h120.924V90.476L63.463 72.319 3 90.477v29.993z" fill="#33363a"/><path fill="#33363a" d="M49.792 54.069l-2.63 30.912 16.3 8.12 16.301-8.12-2.63-30.912z"/><path d="M63.462 96.101c-.264 0-.527-.069-.762-.208l-16.3-9.62a1.499 1.499 0 0 1-.732-1.419l2.629-30.911a1.5 1.5 0 0 1 1.495-1.373h27.342a1.5 1.5 0 0 1 1.495 1.373l2.629 30.911a1.5 1.5 0 0 1-.732 1.419l-16.301 9.62a1.51 1.51 0 0 1-.763.208zM48.737 84.168l14.725 8.69 14.726-8.69-2.433-28.599H51.169l-2.432 28.599z" fill="#33363a"/><path fill="#f9c19b" d="M49.792 54.069l-2.63 30.912 16.3 2.958 16.301-2.958-2.63-30.912z"/><path d="M77.133 54.069H49.792l-1.5 17.625 10.448 8.549a7.452 7.452 0 0 0 4.723 1.686c1.675 0 3.35-.563 4.723-1.686l10.448-8.549-1.501-17.625z" fill="#efa37d"/><path d="M63.462 90.151c-.11 0-.221-.013-.33-.037l-16.3-3.671a1.499 1.499 0 0 1-1.165-1.59l2.629-30.911a1.5 1.5 0 0 1 1.495-1.373h27.342a1.5 1.5 0 0 1 1.495 1.373l2.629 30.911a1.5 1.5 0 0 1-1.165 1.59l-16.301 3.671a1.462 1.462 0 0 1-.329.037zm-14.694-6.346l14.694 3.31 14.695-3.31-2.402-28.235H51.169l-2.401 28.235z" fill="#33363a"/><path d="M41.565 48.591a7.739 7.739 0 0 1-7.739-7.74 7.74 7.74 0 0 1 7.739-7.739M85.359 33.111a7.74 7.74 0 0 1 0 15.479" fill="#f9c19b"/><path d="M78.13 25.964l-13.362-2.377a7.538 7.538 0 0 0-2.612 0l-13.361 2.377a7.46 7.46 0 0 0-6.152 7.344v22.01a7.454 7.454 0 0 0 2.736 5.774L58.74 72.024a7.447 7.447 0 0 0 4.723 1.687c1.675 0 3.35-.563 4.723-1.687l13.362-10.932a7.46 7.46 0 0 0 2.735-5.774v-22.01a7.461 7.461 0 0 0-6.153-7.344z" fill="#a57555"/><path d="M78.13 25.964L64.768 32.44a7.441 7.441 0 0 0-2.612 0l-13.361-6.476a7.46 7.46 0 0 0-6.152 7.344v22.01a7.454 7.454 0 0 0 2.736 5.774L58.74 72.024a7.447 7.447 0 0 0 4.723 1.687c1.675 0 3.35-.563 4.723-1.687l13.362-10.932a7.46 7.46 0 0 0 2.735-5.774v-22.01a7.461 7.461 0 0 0-6.153-7.344z" fill="#f9c19b"/><path d="M63.462 73.71c1.675 0 3.35-.563 4.723-1.687l13.362-10.932a7.46 7.46 0 0 0 2.735-5.774v-22.01a7.46 7.46 0 0 0-6.152-7.344l-13.362-2.377c-.864-.152-.442-.152-1.306 0" fill="#efa37d"/><path d="M94.599 40.851c0-5.095-4.145-9.239-9.24-9.239-.288 0-.554.085-.783.226a1.496 1.496 0 0 0-1.794 1.47v22.01a5.934 5.934 0 0 1-2.185 4.613L67.235 70.862c-2.121 1.738-5.421 1.738-7.546 0L46.328 59.931a5.937 5.937 0 0 1-2.186-4.613v-22.01a1.5 1.5 0 0 0-1.794-1.47 1.484 1.484 0 0 0-.783-.226c-5.095 0-9.239 4.145-9.239 9.239 0 4.952 3.919 8.995 8.816 9.219v5.248a8.929 8.929 0 0 0 3.286 6.936l13.361 10.932a8.984 8.984 0 0 0 5.673 2.025c2.063 0 4.078-.72 5.673-2.025l13.363-10.932a8.931 8.931 0 0 0 3.285-6.936V50.07c4.897-.224 8.816-4.268 8.816-9.219zm-59.273 0c0-3.298 2.573-5.999 5.816-6.218V47.07c-3.243-.22-5.816-2.922-5.816-6.219zm50.456 6.218V34.633c3.243.219 5.816 2.92 5.816 6.218s-2.573 5.999-5.816 6.218z" fill="#33363a"/><g><path d="M12.221 123.126a1.5 1.5 0 0 1-1.454-1.136l-5.333-21.307a1.5 1.5 0 1 1 2.91-.728l5.333 21.307a1.5 1.5 0 0 1-1.456 1.864zM114.703 123.126a1.5 1.5 0 0 1-1.456-1.864l5.333-21.307a1.5 1.5 0 0 1 2.91.728l-5.333 21.307a1.5 1.5 0 0 1-1.454 1.136z" fill="#33363a"/></g><g><path d="M74.071 4.954H52.853c-8.108 0-14.681 6.572-14.681 14.68v13.874h50.58V19.634c0-8.108-6.572-14.68-14.681-14.68z" fill="#7bc7ff"/><path d="M74.071 11.687H52.853c-8.108 0-14.681 6.572-14.681 14.681v7.141h50.58v-7.141c0-8.109-6.572-14.681-14.681-14.681z" fill="#0086ff"/><path d="M88.752 35.008h-50.58a1.5 1.5 0 0 1-1.5-1.5V19.634c0-8.922 7.259-16.18 16.181-16.18h21.219c8.922 0 16.181 7.258 16.181 16.18v13.874a1.501 1.501 0 0 1-1.501 1.5zm-49.08-3h47.58V19.634c0-7.268-5.913-13.18-13.181-13.18H52.853c-7.268 0-13.181 5.912-13.181 13.18v12.374z" fill="#33363a"/><path d="M69.462 21.098h-12a1.5 1.5 0 0 0-1.5 1.5v4.67a1.5 1.5 0 0 0 1.5 1.5h12a1.5 1.5 0 0 0 1.5-1.5v-4.67a1.5 1.5 0 0 0-1.5-1.5z" fill="#33363a"/></g><g><path d="M35.024 88.351a1.5 1.5 0 0 1-.285-2.973l12.834-2.5a1.5 1.5 0 1 1 .573 2.946l-12.834 2.5a1.576 1.576 0 0 1-.288.027zM91.9 88.351c-.095 0-.191-.009-.288-.027l-12.834-2.5a1.501 1.501 0 0 1 .573-2.946l12.834 2.5a1.501 1.501 0 0 1-.285 2.973z" fill="#33363a"/></g><g><path d="M45.338 114.486c0-10.009 8.115-18.124 18.123-18.124 10.009 0 18.124 8.115 18.124 18.124" fill="#ff8f8f"/><path d="M45.338 114.486c0-7.662 8.115-13.885 18.123-13.885 10.009 0 18.124 6.223 18.124 13.885" fill="#ff1a1a"/><path fill="#fff" d="M81.585 114.486H45.338"/><path fill="#dce6ea" d="M81.585 114.486H45.338"/><path d="M63.461 94.862c-10.82 0-19.623 8.804-19.623 19.624a1.5 1.5 0 0 0 1.5 1.5h36.247a1.5 1.5 0 0 0 1.5-1.5c0-10.82-8.803-19.624-19.624-19.624zm0 3c8.66 0 15.786 6.658 16.548 15.124H46.914c.762-8.465 7.888-15.124 16.547-15.124z" fill="#33363a"/><path d="M67.698 110.288a5.988 5.988 0 0 1 0 8.472 5.991 5.991 0 1 1 0-8.472z" fill="#fff"/><path d="M59.224 118.76a5.991 5.991 0 0 1 8.474-8.472" fill="#d8e5ea"/><path d="M63.462 122.017a7.446 7.446 0 0 1-5.299-2.196c-1.414-1.412-2.193-3.293-2.193-5.295s.779-3.884 2.193-5.298c1.416-1.416 3.297-2.195 5.298-2.195s3.882.779 5.296 2.194a7.438 7.438 0 0 1 2.195 5.301c0 2.001-.78 3.882-2.196 5.294a7.436 7.436 0 0 1-5.293 2.195h-.001zm0-11.985c-1.2 0-2.328.468-3.177 1.316a4.462 4.462 0 0 0-1.314 3.177c0 1.199.466 2.327 1.314 3.173a4.465 4.465 0 0 0 3.178 1.318h.001a4.464 4.464 0 0 0 3.173-1.316 4.454 4.454 0 0 0 1.317-3.174c0-1.2-.467-2.329-1.315-3.177l-.001-.002a4.468 4.468 0 0 0-3.176-1.315z" fill="#33363a"/></g></svg>