<svg xmlns="http://www.w3.org/2000/svg" viewBox="0 0 126.953 126.953"><circle cx="63.477" cy="63.476" r="61.977" fill="#ffd00b"/><path d="M63.477 1.5v123.953c34.229 0 61.977-27.748 61.977-61.978C125.453 29.247 97.705 1.5 63.477 1.5z" fill="#ffbe08"/><path d="M63.477 126.953C28.476 126.953 0 98.477 0 63.476S28.476 0 63.477 0s63.477 28.475 63.477 63.476c-.001 35.001-28.476 63.477-63.477 63.477zM63.477 3C30.13 3 3 30.129 3 63.476c0 33.348 27.13 60.478 60.477 60.478s60.477-27.13 60.477-60.478C123.953 30.129 96.823 3 63.477 3z" fill="#33363a"/><circle cx="63.477" cy="63.477" r="47.978" fill="#ffd00b"/><path d="M29.553 29.552l67.85 67.851c18.736-18.736 18.736-49.114 0-67.852-18.737-18.736-49.114-18.737-67.85.001z" fill="#ffbe08"/><path d="M63.477 11.781a1.5 1.5 0 0 1-1.5-1.5V6.759a1.5 1.5 0 1 1 3 0v3.522a1.5 1.5 0 0 1-1.5 1.5zM63.477 121.695a1.5 1.5 0 0 1-1.5-1.5v-3.522a1.5 1.5 0 1 1 3 0v3.522a1.5 1.5 0 0 1-1.5 1.5zM101.092 27.361a1.5 1.5 0 0 1-1.061-2.56l2.49-2.49a1.5 1.5 0 1 1 2.121 2.121l-2.49 2.49a1.493 1.493 0 0 1-1.06.439zM23.371 105.082a1.5 1.5 0 0 1-1.061-2.56l2.49-2.49a1.5 1.5 0 1 1 2.121 2.121l-2.49 2.49a1.491 1.491 0 0 1-1.06.439zM120.195 64.977h-3.523a1.5 1.5 0 1 1 0-3h3.523a1.5 1.5 0 1 1 0 3zM10.281 64.977H6.758a1.5 1.5 0 1 1 0-3h3.523a1.5 1.5 0 1 1 0 3zM103.582 105.082c-.384 0-.768-.146-1.061-.439l-2.49-2.49a1.5 1.5 0 1 1 2.121-2.121l2.49 2.49a1.5 1.5 0 0 1-1.06 2.56zM25.861 27.361c-.384 0-.768-.146-1.061-.439l-2.49-2.49a1.5 1.5 0 1 1 2.121-2.121l2.49 2.49a1.5 1.5 0 0 1-1.06 2.56zM36.88 18.909a1.5 1.5 0 0 1-1.3-.75l-1.762-3.051a1.5 1.5 0 1 1 2.598-1.5l1.762 3.051a1.5 1.5 0 0 1-1.298 2.25zM91.837 114.096c-.519 0-1.022-.27-1.301-.751l-1.76-3.051a1.501 1.501 0 0 1 2.6-1.499l1.76 3.051a1.501 1.501 0 0 1-1.299 2.25zM77.247 13.594a1.502 1.502 0 0 1-1.451-1.888l.91-3.402a1.5 1.5 0 1 1 2.899.775l-.91 3.402a1.5 1.5 0 0 1-1.448 1.113zM48.8 119.762a1.502 1.502 0 0 1-1.451-1.888l.91-3.402a1.5 1.5 0 1 1 2.899.775l-.91 3.402a1.501 1.501 0 0 1-1.448 1.113z" fill="#33363a"/><g><path d="M109.546 38.379a1.5 1.5 0 0 1-.751-2.799l3.051-1.762a1.5 1.5 0 1 1 1.5 2.598l-3.051 1.762a1.496 1.496 0 0 1-.749.201zM14.358 93.336a1.5 1.5 0 0 1-.751-2.799l3.051-1.761a1.5 1.5 0 0 1 1.5 2.598l-3.051 1.761a1.496 1.496 0 0 1-.749.201z" fill="#33363a"/></g><g><path d="M118.263 79.657a1.5 1.5 0 0 1-.39-.052l-3.402-.912a1.501 1.501 0 0 1-1.061-1.837 1.504 1.504 0 0 1 1.838-1.061l3.402.912a1.501 1.501 0 0 1-.387 2.95zM12.095 51.208c-.129 0-.259-.017-.389-.052l-3.402-.911a1.501 1.501 0 0 1-1.062-1.837 1.504 1.504 0 0 1 1.837-1.061l3.402.911a1.501 1.501 0 0 1-.386 2.95z" fill="#33363a"/></g><g><path d="M17.407 38.379c-.255 0-.513-.065-.749-.202l-3.051-1.762a1.5 1.5 0 1 1 1.5-2.598l3.051 1.762a1.5 1.5 0 0 1-.751 2.8zM112.595 93.336c-.255 0-.513-.065-.749-.202l-3.049-1.762a1.5 1.5 0 1 1 1.5-2.597l3.049 1.762a1.5 1.5 0 0 1-.751 2.799zM49.708 13.594a1.5 1.5 0 0 1-1.448-1.112l-.912-3.401a1.5 1.5 0 0 1 2.899-.777l.912 3.401a1.5 1.5 0 0 1-1.451 1.889zM78.157 119.762a1.5 1.5 0 0 1-1.448-1.112l-.912-3.402a1.5 1.5 0 0 1 2.899-.776l.912 3.402a1.5 1.5 0 0 1-1.451 1.888z" fill="#33363a"/><g><path d="M90.073 18.908a1.5 1.5 0 0 1-1.298-2.251l1.762-3.05a1.5 1.5 0 0 1 2.598 1.501l-1.762 3.05a1.5 1.5 0 0 1-1.3.75zM35.116 114.096a1.5 1.5 0 0 1-1.298-2.251l1.762-3.049a1.5 1.5 0 1 1 2.598 1.501l-1.762 3.049a1.5 1.5 0 0 1-1.3.75z" fill="#33363a"/></g><g><path d="M114.858 51.208a1.5 1.5 0 0 1-.386-2.949l3.402-.911a1.5 1.5 0 0 1 .775 2.898l-3.402.911a1.49 1.49 0 0 1-.389.051zM8.69 79.658a1.501 1.501 0 0 1-.387-2.949l3.402-.913a1.5 1.5 0 0 1 .777 2.897l-3.402.913a1.5 1.5 0 0 1-.39.052z" fill="#33363a"/></g></g><g><path d="M83.557 72.418a1.5 1.5 0 0 1-1.5-1.5c0-.25-.202-.453-.451-.453s-.451.203-.451.453a1.5 1.5 0 1 1-3 0c0-1.904 1.548-3.453 3.451-3.453s3.451 1.549 3.451 3.453a1.5 1.5 0 0 1-1.5 1.5z" fill="#33363a"/></g><g><circle cx="79.354" cy="81.692" r="5.238" fill="#e04038"/></g><g><path d="M79.354 76.455a5.238 5.238 0 1 1 0 10.476" fill="#ff6155"/></g><g><path d="M79.354 88.432a6.746 6.746 0 0 1-6.738-6.739c0-3.715 3.022-6.737 6.738-6.737s6.738 3.022 6.738 6.737c0 3.715-3.023 6.739-6.738 6.739zm0-10.477a3.742 3.742 0 0 0-3.738 3.737c0 2.062 1.677 3.739 3.738 3.739s3.738-1.677 3.738-3.739a3.742 3.742 0 0 0-3.738-3.737z" fill="#33363a"/></g><path d="M98.463 28.49c-19.291-19.291-50.68-19.291-69.971.001-18.263 18.263-19.225 47.362-2.91 66.781.047.064.099.125.156.182a49.431 49.431 0 0 0 2.752 3.008c9.646 9.646 22.316 14.468 34.987 14.468 12.67 0 25.34-4.823 34.985-14.468 19.292-19.29 19.292-50.68.001-69.972zm-12.544 75.677c-17.661 9.73-40.352 7.129-55.308-7.825a46.987 46.987 0 0 1-1.877-2.002c5.145-6.625 8.946-12.537 12.304-17.775 4.016-6.263 7.187-11.209 11.167-15.106a1.499 1.499 0 0 0-.405-2.426 30.006 30.006 0 0 1-6.841-4.496c-.006-.005-.009-.014-.015-.019-.472-.411-.925-.82-1.36-1.245-.057-.056-.119-.105-.175-.161a29.069 29.069 0 0 1-1.481-1.602c-.13-.151-.253-.308-.38-.461a30.355 30.355 0 0 1-1-1.266 27.597 27.597 0 0 1-.376-.522 30.278 30.278 0 0 1-.915-1.363c-.095-.151-.192-.301-.285-.453a30.439 30.439 0 0 1-2.254-4.539l4.384-4.383a30.183 30.183 0 0 1 10.208 6.686 29.951 29.951 0 0 1 6.566 9.911 1.5 1.5 0 0 0 2.037.785c2.669-1.279 5.491-1.455 8.143-1.455 7.165 0 19.879 5.717 25.116 16.451 4.701 9.635 2.247 21.051-7.096 33.015-.061.08-.113.164-.157.251zm-38.548-44.15c.431.265.858.535 1.301.78-.287.312-.567.64-.848.963a26.229 26.229 0 0 0-.453-1.743zm-2.287 3.269a24.14 24.14 0 0 1-12.602-6.638 24.008 24.008 0 0 1-4.679-6.656L31.796 46a24.04 24.04 0 0 1 4.448 2.754c.095.159.201.31.298.467.186.302.377.6.573.896.133.2.265.401.403.598.319.46.647.913.99 1.357.086.111.177.219.265.329a33.446 33.446 0 0 0 1.273 1.512c.401.448.81.889 1.237 1.315l.002.002.001.001.002.002c.37.371.746.713 1.125 1.05.122.111.239.229.363.339a24.01 24.01 0 0 1 2.308 6.664zm51.258 33.056a46.734 46.734 0 0 1-3.649 3.281c6.817-11.295 6.642-20.354 4.488-26.822 1.44-1.214 1.834-3.325.826-4.985-.896-1.472-2.619-2.12-4.213-1.747-6.254-9.113-17.616-14.62-25.737-14.62-2.559 0-5.274.154-8.006 1.147a32.834 32.834 0 0 0-6.619-9.51 33.212 33.212 0 0 0-12.13-7.711c-.018-.007-.033-.02-.052-.026-.106-.038-.214-.068-.32-.105a31.7 31.7 0 0 0-1.359-.444c-.126-.038-.251-.078-.377-.115a33.13 33.13 0 0 0-1.765-.461c-.089-.021-.178-.037-.267-.057a32.602 32.602 0 0 0-1.984-.379 33.13 33.13 0 0 0-1.785-.241 1.504 1.504 0 0 0-1.647 1.644v.003l.003.023c.072.688.168 1.374.284 2.059.037.222.089.44.131.661.09.471.18.941.291 1.409.056.238.124.472.185.708.117.453.237.906.373 1.355.063.208.135.413.203.62.11.34.211.682.333 1.018.016.045.044.082.064.125.056.152.101.309.16.46a27.841 27.841 0 0 0-1.68-.786c-.012-.005-.021-.014-.033-.019-.037-.016-.075-.027-.112-.043a27.124 27.124 0 0 0-1.784-.688l-.045-.015a26.724 26.724 0 0 0-1.803-.544l-.168-.046a27.24 27.24 0 0 0-1.775-.393l-.339-.06a26.481 26.481 0 0 0-1.805-.258 1.507 1.507 0 0 0-1.216.431 1.505 1.505 0 0 0-.432 1.212v.003l.002.014c.073.703.18 1.405.31 2.103.063.34.148.675.224 1.012.078.342.151.684.242 1.024.116.437.253.866.391 1.296.074.228.144.456.224.683.163.466.342.924.53 1.379.043.104.076.211.121.315.013.03.034.055.049.084 1.348 3.124 3.257 6.001 5.686 8.429a27.136 27.136 0 0 0 13.979 7.426c-1.921 2.668-3.805 5.595-5.828 8.751-3.233 5.043-6.883 10.718-11.74 17.026-14.161-18.218-12.89-44.629 3.841-61.359 9.062-9.062 20.961-13.591 32.864-13.591 11.9 0 23.805 4.531 32.864 13.59 18.123 18.126 18.123 47.612.002 65.734z" fill="#33363a"/><g><path d="M44.938 90.231a1.501 1.501 0 0 1-1.341-.826c-.118-.232-2.906-5.584-8.223-4.063a1.499 1.499 0 1 1-.824-2.884c6.18-1.766 10.374 2.893 11.729 5.603a1.5 1.5 0 0 1-1.341 2.17z" fill="#33363a"/></g><g><path d="M40.987 95.919a1.501 1.501 0 0 1-1.341-.826c-.118-.232-2.916-5.581-8.225-4.064a1.5 1.5 0 1 1-.824-2.885c6.19-1.765 10.377 2.894 11.73 5.604a1.5 1.5 0 0 1-1.34 2.171z" fill="#33363a"/></g><g><path d="M82.662 39.006a1.5 1.5 0 0 1-1.42-1.984l.242-.712a1.5 1.5 0 0 1 2.84.966l-.242.712a1.5 1.5 0 0 1-1.42 1.018zM79.023 49.672a1.5 1.5 0 0 1-1.42-1.985l1.426-4.18a1.5 1.5 0 0 1 2.84.969l-1.426 4.18a1.5 1.5 0 0 1-1.42 1.016z" fill="#33363a"/><g><path d="M61.729 36.139a1.5 1.5 0 0 1-1.345-.834l-.336-.678a1.5 1.5 0 0 1 2.688-1.332l.336.678a1.5 1.5 0 0 1-1.343 2.166zM66.698 46.254a1.503 1.503 0 0 1-1.348-.839l-1.949-3.971a1.5 1.5 0 1 1 2.694-1.322l1.949 3.971a1.5 1.5 0 0 1-1.346 2.161z" fill="#33363a"/><g><path d="M100.983 49.532a1.5 1.5 0 0 1-.661-2.847l.678-.333a1.5 1.5 0 0 1 1.32 2.694l-.678.332a1.493 1.493 0 0 1-.659.154zM90.872 54.5a1.5 1.5 0 0 1-.663-2.846l3.963-1.949a1.5 1.5 0 0 1 1.324 2.692l-3.963 1.949a1.488 1.488 0 0 1-.661.154z" fill="#33363a"/></g></g></g></svg>