<svg xmlns="http://www.w3.org/2000/svg" viewBox="0 0 127.019 127.019"><path fill="#b122e0" d="M43.968 114.236v.002l19.542 11.281 19.542-11.281v-.002L63.51 102.955z"/><path fill="#bf44f2" d="M63.51 125.519l19.542-11.281v-.002L63.51 102.955"/><path d="M63.51 127.019c-.259 0-.518-.067-.75-.201l-19.542-11.281a1.502 1.502 0 0 1 0-2.6l19.542-11.281a1.5 1.5 0 0 1 1.5 0l19.542 11.281a1.5 1.5 0 0 1 0 2.598L64.26 126.818a1.501 1.501 0 0 1-.75.201zm-16.542-12.783l16.542 9.551 16.542-9.549-16.542-9.551-16.542 9.549z" fill="#33363a"/><path d="M75.379 55.711c-2.385 4.084-6.806 6.844-11.87 6.844s-9.484-2.76-11.87-6.844H31.374c3.18 14.82 16.378 25.968 32.136 25.968s28.956-11.147 32.136-25.968H75.379z" fill="#d271ff"/><path d="M63.51 62.554c-5.063 0-9.484-2.76-11.87-6.844H34.243c5.448 10.633 16.519 17.932 29.267 17.932s23.818-7.299 29.267-17.932H75.379c-2.385 4.085-6.806 6.844-11.869 6.844z" fill="#b122e0"/><path d="M51.64 42.071c2.385-4.085 6.806-6.845 11.87-6.845s9.484 2.76 11.87 6.845h20.266C92.465 27.25 79.267 16.102 63.51 16.102S34.554 27.25 31.374 42.071H51.64z" fill="#d271ff"/><path d="M63.51 35.226c5.063 0 9.484 2.76 11.87 6.845h17.397C87.328 31.437 76.258 24.139 63.51 24.139s-23.818 7.298-29.267 17.932H51.64c2.385-4.085 6.806-6.845 11.87-6.845z" fill="#b122e0"/><circle cx="63.509" cy="48.89" r="7.165" fill="#d271ff"/><path d="M63.51 41.724a7.166 7.166 0 0 1 0 14.332" fill="#bf44f2"/><path d="M63.51 57.556c-4.778 0-8.666-3.888-8.666-8.666s3.887-8.666 8.666-8.666c4.778 0 8.665 3.888 8.665 8.666s-3.888 8.666-8.665 8.666zm0-14.332c-3.124 0-5.666 2.542-5.666 5.666s2.542 5.666 5.666 5.666c3.124 0 5.665-2.542 5.665-5.666s-2.542-5.666-5.665-5.666zM49.843 50.39H39.719a1.5 1.5 0 1 1 0-3h10.124a1.5 1.5 0 1 1 0 3zM33.889 50.39a1.499 1.499 0 0 1-1.06-2.56c.56-.56 1.56-.56 2.12 0 .28.28.44.67.44 1.06s-.16.78-.44 1.06-.669.44-1.06.44zM28.579 50.39c-.4 0-.79-.16-1.07-.44a1.55 1.55 0 0 1-.43-1.06c0-.4.16-.78.43-1.06.56-.56 1.57-.56 2.13 0 .27.28.43.66.43 1.06 0 .39-.16.78-.43 1.06-.28.28-.669.44-1.06.44zM87.3 50.39H77.177a1.5 1.5 0 1 1 0-3H87.3a1.5 1.5 0 1 1 0 3zM93.129 50.39c-.39 0-.78-.16-1.06-.44s-.44-.67-.44-1.06.16-.78.44-1.06c.56-.56 1.57-.56 2.12 0 .28.28.44.67.44 1.06s-.16.78-.44 1.06-.659.44-1.06.44zM98.45 50.39c-.4 0-.78-.16-1.07-.44a1.55 1.55 0 0 1-.43-1.06c0-.4.16-.78.43-1.06.56-.56 1.57-.56 2.13 0 .28.28.44.67.44 1.06s-.16.78-.44 1.06c-.281.28-.67.44-1.06.44z" fill="#33363a"/><g fill="#33363a"><path d="M62.45 96.63a1.499 1.499 0 1 0 2.12 2.12c.28-.28.44-.67.44-1.06s-.16-.78-.44-1.06c-.56-.56-1.56-.56-2.12 0zM62.01 7.532v7.104c-15.465.683-28.831 11.878-32.103 27.121a1.501 1.501 0 0 0 1.467 1.814H51.64a1.5 1.5 0 0 0 1.295-.744c2.197-3.763 6.249-6.101 10.574-6.101s8.377 2.338 10.574 6.101c.269.46.762.744 1.295.744h20.266a1.502 1.502 0 0 0 1.467-1.814c-3.27-15.244-16.636-26.438-32.101-27.122V5.923a1.5 1.5 0 0 0-1.5-1.5c-.165 0-.321.033-.469.082-24.264.254-43.927 20.062-43.927 44.385a1.5 1.5 0 1 0 3 0c0-22.323 17.763-40.565 39.896-41.358zm1.5 10.07c14.064 0 26.485 9.553 30.222 22.969H76.211c-2.816-4.243-7.605-6.845-12.702-6.845s-9.885 2.602-12.702 6.845h-17.52c3.737-13.416 16.159-22.969 30.223-22.969zM106.406 47.39a1.5 1.5 0 0 0-1.5 1.5c0 22.323-17.764 40.565-39.896 41.358v-7.104c15.465-.683 28.831-11.877 32.103-27.12.095-.443-.016-.905-.3-1.258s-.713-.557-1.167-.557H75.379a1.5 1.5 0 0 0-1.295.744c-2.197 3.763-6.25 6.1-10.574 6.1s-8.377-2.337-10.574-6.1a1.501 1.501 0 0 0-1.295-.744H31.374a1.502 1.502 0 0 0-1.467 1.815c3.271 15.243 16.637 26.436 32.103 27.12v10.103a1.5 1.5 0 1 0 3 .001c23.787-.795 42.896-20.381 42.896-44.358a1.5 1.5 0 0 0-1.5-1.5zM63.51 80.178c-14.063 0-26.484-9.553-30.222-22.968h17.521c2.817 4.242 7.606 6.844 12.702 6.844s9.885-2.602 12.702-6.844h17.521c-3.74 13.415-16.161 22.968-30.224 22.968zM63.51 2.98A1.499 1.499 0 0 0 64.57.42c-.56-.56-1.56-.56-2.12 0-.28.28-.44.67-.44 1.06s.16.78.44 1.06c.279.28.659.44 1.06.44z"/></g></svg>