<?xml version="1.0" encoding="iso-8859-1"?>
<!-- Generator: Adobe Illustrator 19.0.0, SVG Export Plug-In . SVG Version: 6.00 Build 0)  -->
<svg version="1.1" id="Layer_1" xmlns="http://www.w3.org/2000/svg" xmlns:xlink="http://www.w3.org/1999/xlink" x="0px" y="0px"
	 viewBox="0 0 126.935 126.935" style="enable-background:new 0 0 126.935 126.935;" xml:space="preserve">
<g>
	<g>
		<path style="fill:#FF1A1A;" d="M21.528,104.172c0,4.52-3.662,8.181-8.182,8.181l0,0c-4.519,0-8.182-3.661-8.182-8.181V80.436
			c0-4.52,3.662-8.183,8.182-8.183l0,0c4.519,0,8.182,3.663,8.182,8.183V104.172z"/>
	</g>
	<g>
		<path style="fill:#FF7676;" d="M13.346,72.254c-4.519,0-8.182,3.663-8.182,8.183v1.61c0,4.519,3.662,8.181,8.182,8.181
			s8.182-3.662,8.182-8.181v-1.61C21.528,75.917,17.866,72.254,13.346,72.254z"/>
	</g>
	<g>
		<path style="fill:#33363A;" d="M13.346,113.853c-5.339,0-9.682-4.343-9.682-9.681V80.437c0-5.339,4.343-9.683,9.682-9.683
			s9.682,4.344,9.682,9.683v23.735C23.028,109.51,18.685,113.853,13.346,113.853z M13.346,73.754c-3.685,0-6.682,2.998-6.682,6.683
			v23.735c0,3.684,2.997,6.681,6.682,6.681s6.682-2.997,6.682-6.681V80.437C20.028,76.752,17.031,73.754,13.346,73.754z"/>
	</g>
	<g>
		<path style="fill:#FF1A1A;" d="M121.77,104.172c0,4.52-3.662,8.181-8.183,8.181l0,0c-4.519,0-8.181-3.661-8.181-8.181V80.436
			c0-4.52,3.662-8.183,8.181-8.183l0,0c4.521,0,8.183,3.663,8.183,8.183V104.172z"/>
	</g>
	<g>
		<path style="fill:#FF7676;" d="M113.587,72.254c-4.519,0-8.181,3.663-8.181,8.183v1.61c0,4.519,3.662,8.181,8.181,8.181
			c4.521,0,8.183-3.662,8.183-8.181v-1.61C121.77,75.917,118.108,72.254,113.587,72.254z"/>
	</g>
	<g>
		<path style="fill:#33363A;" d="M113.587,113.853c-5.338,0-9.681-4.343-9.681-9.681V80.437c0-5.339,4.343-9.683,9.681-9.683
			c5.339,0,9.683,4.344,9.683,9.683v23.735C123.27,109.51,118.926,113.853,113.587,113.853z M113.587,73.754
			c-3.684,0-6.681,2.998-6.681,6.683v23.735c0,3.684,2.997,6.681,6.681,6.681c3.685,0,6.683-2.997,6.683-6.681V80.437
			C120.27,76.752,117.272,73.754,113.587,73.754z"/>
	</g>
	<g>
		<path style="fill:#8DE4FF;" d="M66.922,11.39H60.01c-24.771,0-44.926,20.156-44.926,44.928v51.838
			c0,9.543,7.734,17.279,17.279,17.279h62.205c9.545,0,17.281-7.736,17.281-17.279V56.317C111.85,31.546,91.695,11.39,66.922,11.39z
			"/>
	</g>
	<g>
		<path style="fill:#00AAFF;" d="M66.922,23.593H60.01c-24.771,0-44.926,20.156-44.926,44.928v39.635
			c0,9.543,7.734,17.279,17.279,17.279h62.205c9.545,0,17.281-7.736,17.281-17.279V68.52C111.85,43.749,91.695,23.593,66.922,23.593
			z"/>
	</g>
	<g>
		<path style="fill:#FF1A1A;" d="M95.631,96.541c0,8.091-6.559,14.652-14.65,14.652H45.954c-8.09,0-14.65-6.562-14.65-14.652V85.552
			c0-8.09,6.561-14.648,14.65-14.648h35.027c8.092,0,14.65,6.559,14.65,14.648V96.541z"/>
	</g>
	<g>
		<path style="fill:#FF7676;" d="M45.954,70.903c-5.369,0-10.051,2.896-12.603,7.205c2.552,4.31,7.233,7.209,12.603,7.209h35.027
			c5.369,0,10.051-2.899,12.601-7.209c-2.551-4.309-7.232-7.205-12.601-7.205H45.954z"/>
	</g>
	<g>
		<path style="fill:#33363A;" d="M95.571,58.81c-0.828,0-1.5-0.671-1.5-1.5c0-15.61-12.7-28.31-28.312-28.31h-4.585
			c-15.61,0-28.311,12.7-28.311,28.31c0,0.829-0.672,1.5-1.5,1.5s-1.5-0.671-1.5-1.5C29.864,40.045,43.91,26,61.174,26h4.585
			c17.266,0,31.312,14.045,31.312,31.31C97.071,58.138,96.399,58.81,95.571,58.81z"/>
	</g>
	<g>
		<path style="fill:#33363A;" d="M95.85,68.479c-1.287,0-2.334-1.048-2.334-2.336v-2.633c0-1.287,1.047-2.334,2.334-2.334
			s2.334,1.047,2.334,2.334v2.633C98.184,67.432,97.137,68.479,95.85,68.479z"/>
	</g>
	<path style="fill:#33363A;" d="M78.495,11.35C76.623,4.808,70.602,0,63.467,0C56.333,0,50.311,4.807,48.44,11.35
		C28.42,16.504,13.584,34.71,13.584,56.317v51.838c0,10.355,8.425,18.779,18.779,18.779h62.205c10.356,0,18.781-8.424,18.781-18.779
		V56.317C113.35,34.711,98.515,16.505,78.495,11.35z M63.467,3c5.185,0,9.647,3.141,11.594,7.619
		c-2.645-0.47-5.361-0.729-8.139-0.729H60.01c-2.777,0-5.493,0.259-8.137,0.729C53.821,6.141,58.282,3,63.467,3z M110.35,108.155
		c0,8.701-7.079,15.779-15.781,15.779H32.364c-8.701,0-15.779-7.079-15.779-15.779V56.317c0-19.735,13.236-36.426,31.294-41.69
		c-0.022,0.337-0.051,0.672-0.051,1.015c0,0.829,0.672,1.5,1.5,1.5s1.5-0.671,1.5-1.5c0-0.612,0.059-1.21,0.143-1.799
		c2.918-0.62,5.941-0.953,9.041-0.953h6.912c3.101,0,6.124,0.333,9.042,0.954c0.084,0.589,0.143,1.186,0.143,1.798
		c0,0.829,0.672,1.5,1.5,1.5s1.5-0.671,1.5-1.5c0-0.342-0.03-0.677-0.051-1.014c18.057,5.265,31.294,21.955,31.294,41.69V108.155z"
		/>
	<g>
		<path style="fill:#33363A;" d="M80.981,69.403H45.954c-8.905,0-16.15,7.244-16.15,16.148v10.989
			c0,8.906,7.245,16.152,16.15,16.152h35.027c8.905,0,16.15-7.246,16.15-16.152V85.552C97.131,76.647,89.886,69.403,80.981,69.403z
			 M80.981,109.693H45.954c-4.805,0-9.004-2.599-11.299-6.457h1.98c0.828,0,1.5-0.671,1.5-1.5s-0.672-1.5-1.5-1.5h-3.294
			c-0.344-1.174-0.538-2.412-0.538-3.695V85.552c0-7.25,5.899-13.148,13.15-13.148h35.027c7.251,0,13.15,5.898,13.15,13.148v10.989
			c0,1.284-0.193,2.522-0.538,3.695h-3.294c-0.828,0-1.5,0.671-1.5,1.5s0.672,1.5,1.5,1.5h1.98
			C89.985,107.095,85.786,109.693,80.981,109.693z"/>
		<path style="fill:#33363A;" d="M51.967,100.236h-7.666c-0.828,0-1.5,0.671-1.5,1.5s0.672,1.5,1.5,1.5h7.666
			c0.828,0,1.5-0.671,1.5-1.5S52.795,100.236,51.967,100.236z"/>
		<path style="fill:#33363A;" d="M67.3,100.236h-7.666c-0.828,0-1.5,0.671-1.5,1.5s0.672,1.5,1.5,1.5H67.3
			c0.828,0,1.5-0.671,1.5-1.5S68.128,100.236,67.3,100.236z"/>
		<path style="fill:#33363A;" d="M82.632,100.236h-7.666c-0.828,0-1.5,0.671-1.5,1.5s0.672,1.5,1.5,1.5h7.666
			c0.828,0,1.5-0.671,1.5-1.5S83.46,100.236,82.632,100.236z"/>
	</g>
</g>
<g>
</g>
<g>
</g>
<g>
</g>
<g>
</g>
<g>
</g>
<g>
</g>
<g>
</g>
<g>
</g>
<g>
</g>
<g>
</g>
<g>
</g>
<g>
</g>
<g>
</g>
<g>
</g>
<g>
</g>
</svg>
