<?xml version="1.0" encoding="iso-8859-1"?>
<!-- Generator: Adobe Illustrator 19.0.0, SVG Export Plug-In . SVG Version: 6.00 Build 0)  -->
<svg version="1.1" id="Layer_1" xmlns="http://www.w3.org/2000/svg" xmlns:xlink="http://www.w3.org/1999/xlink" x="0px" y="0px"
	 viewBox="0 0 126.924 126.924" style="enable-background:new 0 0 126.924 126.924;" xml:space="preserve">
<g>
	<g>
		<path style="fill:#7BC7FF;" d="M109.66,29.78c0,1.709-1.385,3.094-3.094,3.094H59.254c-1.709,0-3.094-1.385-3.094-3.094l0,0
			c0-1.709,1.385-3.095,3.094-3.095h47.312C108.275,26.686,109.66,28.071,109.66,29.78L109.66,29.78z"/>
	</g>
	<g>
		<path style="fill:#33363A;" d="M106.566,34.374H59.254c-2.533,0-4.594-2.061-4.594-4.594s2.061-4.595,4.594-4.595h47.312
			c2.533,0,4.594,2.062,4.594,4.595S109.099,34.374,106.566,34.374z M59.254,28.186c-0.879,0-1.594,0.716-1.594,1.595
			s0.715,1.594,1.594,1.594h47.312c0.879,0,1.594-0.715,1.594-1.594s-0.715-1.595-1.594-1.595H59.254z"/>
	</g>
	<g>
		<path style="fill:#BA8663;" d="M86.346,32.309c0,10.335-8.377,18.712-18.711,18.712h-8.346c-10.334,0-18.711-8.377-18.711-18.712
			V27.37c0-10.334,8.377-18.711,18.711-18.711h8.346c10.334,0,18.711,8.377,18.711,18.711V32.309z"/>
	</g>
	<g>
		<path style="fill:#A57555;" d="M86.346,37.059c0,10.335-8.377,18.712-18.711,18.712h-8.346c-10.334,0-18.711-8.377-18.711-18.712
			V32.12c0-10.334,8.377-18.711,18.711-18.711h8.346c10.334,0,18.711,8.377,18.711,18.711V37.059z"/>
	</g>
	<g>
		<path style="fill:#33363A;" d="M67.635,52.521h-8.346c-11.145,0-20.211-9.067-20.211-20.212V27.37
			c0-11.145,9.066-20.211,20.211-20.211h8.346c11.145,0,20.211,9.066,20.211,20.211v4.938
			C87.846,43.453,78.779,52.521,67.635,52.521z M59.289,10.159c-9.49,0-17.211,7.721-17.211,17.211v4.938
			c0,9.49,7.721,17.212,17.211,17.212h8.346c9.49,0,17.211-7.722,17.211-17.212V27.37c0-9.49-7.721-17.211-17.211-17.211H59.289z"/>
	</g>
	<g>
		<g>
			<polygon style="fill:#4B6466;" points="63.463,70.753 1.5,89.36 1.5,121.97 125.424,121.97 125.424,89.36 			"/>
		</g>
		<g>
			<polygon style="fill:#7BC7FF;" points="63.463,70.753 1.5,89.36 1.5,121.97 125.424,121.97 125.424,89.36 			"/>
		</g>
		<g>
			<polygon style="fill:#12B2B2;" points="63.463,87.939 1.5,89.36 1.5,121.97 125.424,121.97 125.424,89.36 			"/>
		</g>
		<g>
			<polygon style="fill:#0086FF;" points="63.463,87.939 1.5,89.36 1.5,121.97 125.424,121.97 125.424,89.36 			"/>
		</g>
		<g>
			<path style="fill:#33363A;" d="M125.424,123.47H1.5c-0.829,0-1.5-0.672-1.5-1.5V89.36c0-0.662,0.434-1.246,1.068-1.437
				l61.963-18.607c0.282-0.084,0.581-0.084,0.863,0l61.961,18.607c0.634,0.19,1.068,0.774,1.068,1.437v32.609
				C126.924,122.798,126.252,123.47,125.424,123.47z M3,120.47h120.924V90.476L63.463,72.319L3,90.477V120.47z"/>
		</g>
	</g>
	<g>
		<polygon style="fill:#33363A;" points="49.792,54.069 47.162,84.981 63.462,93.101 79.763,84.981 77.133,54.069 		"/>
	</g>
	<g>
		<path style="fill:#33363A;" d="M63.462,96.101c-0.264,0-0.527-0.069-0.762-0.208l-16.3-9.62c-0.497-0.293-0.781-0.845-0.732-1.419
			l2.629-30.911c0.066-0.776,0.715-1.373,1.495-1.373h27.342c0.779,0,1.429,0.597,1.495,1.373l2.629,30.911
			c0.049,0.574-0.236,1.126-0.732,1.419l-16.301,9.62C63.989,96.031,63.726,96.101,63.462,96.101z M48.737,84.168l14.725,8.69
			l14.726-8.69l-2.433-28.599H51.169L48.737,84.168z"/>
	</g>
	<g>
		<polygon style="fill:#F9C19B;" points="49.792,54.069 47.162,84.981 63.462,87.939 79.763,84.981 77.133,54.069 		"/>
	</g>
	<g>
		<path style="fill:#EFA37D;" d="M77.133,54.069H49.792l-1.5,17.625l10.448,8.549c1.374,1.123,3.049,1.686,4.723,1.686
			c1.675,0,3.35-0.563,4.723-1.686l10.448-8.549L77.133,54.069z"/>
	</g>
	<g>
		<path style="fill:#33363A;" d="M63.462,90.151c-0.11,0-0.221-0.013-0.33-0.037l-16.3-3.671c-0.731-0.164-1.229-0.843-1.165-1.59
			l2.629-30.911c0.066-0.776,0.715-1.373,1.495-1.373h27.342c0.779,0,1.429,0.597,1.495,1.373l2.629,30.911
			c0.063,0.747-0.434,1.426-1.165,1.59l-16.301,3.671C63.683,90.139,63.572,90.151,63.462,90.151z M48.768,83.805l14.694,3.31
			l14.695-3.31l-2.402-28.235H51.169L48.768,83.805z"/>
	</g>
	<g>
		<path style="fill:#F9C19B;" d="M41.565,48.591c-4.275,0-7.739-3.465-7.739-7.74c0-4.273,3.464-7.739,7.739-7.739"/>
	</g>
	<g>
		<path style="fill:#F9C19B;" d="M85.359,33.111c4.275,0,7.74,3.466,7.74,7.739c0,4.276-3.465,7.74-7.74,7.74"/>
	</g>
	<g>
		<path style="fill:#A57555;" d="M78.13,25.964l-13.362-2.377c-0.864-0.152-1.748-0.152-2.612,0l-13.361,2.377
			c-3.559,0.634-6.152,3.728-6.152,7.344v22.01c0,2.239,1.003,4.357,2.736,5.774l13.361,10.932c1.374,1.124,3.049,1.687,4.723,1.687
			c1.675,0,3.35-0.563,4.723-1.687l13.362-10.932c1.731-1.417,2.735-3.535,2.735-5.774v-22.01
			C84.282,29.692,81.689,26.598,78.13,25.964z"/>
	</g>
	<g>
		<path style="fill:#F9C19B;" d="M78.13,25.964L64.768,32.44c-0.864-0.154-1.748-0.154-2.612,0l-13.361-6.476
			c-3.559,0.634-6.152,3.728-6.152,7.344v22.01c0,2.239,1.003,4.357,2.736,5.774l13.361,10.932c1.374,1.124,3.049,1.687,4.723,1.687
			c1.675,0,3.35-0.563,4.723-1.687l13.362-10.932c1.731-1.417,2.735-3.535,2.735-5.774v-22.01
			C84.282,29.692,81.689,26.598,78.13,25.964z"/>
	</g>
	<g>
		<path style="fill:#EFA37D;" d="M63.462,73.71c1.675,0,3.35-0.563,4.723-1.687l13.362-10.932c1.731-1.417,2.735-3.535,2.735-5.774
			v-22.01c0-3.615-2.593-6.71-6.152-7.344l-13.362-2.377c-0.864-0.152-0.442-0.152-1.306,0"/>
	</g>
	<path style="fill:#33363A;" d="M94.599,40.851c0-5.095-4.145-9.239-9.24-9.239c-0.288,0-0.554,0.085-0.783,0.226
		c-0.095-0.019-0.193-0.03-0.294-0.03c-0.829,0-1.5,0.672-1.5,1.5v22.01c0,1.796-0.796,3.478-2.185,4.613L67.235,70.862
		c-2.121,1.738-5.421,1.738-7.546,0L46.328,59.931c-1.389-1.136-2.186-2.817-2.186-4.613v-22.01c0-0.828-0.671-1.5-1.5-1.5
		c-0.101,0-0.199,0.011-0.294,0.03c-0.228-0.141-0.495-0.226-0.783-0.226c-5.095,0-9.239,4.145-9.239,9.239
		c0,4.952,3.919,8.995,8.816,9.219v5.248c0,2.699,1.198,5.228,3.286,6.936l13.361,10.932c1.597,1.306,3.611,2.025,5.673,2.025
		c2.063,0,4.078-0.72,5.673-2.025l13.363-10.932c2.087-1.709,3.285-4.236,3.285-6.936v-5.248
		C90.68,49.846,94.599,45.802,94.599,40.851z M35.326,40.851c0-3.298,2.573-5.999,5.816-6.218v12.437
		C37.899,46.85,35.326,44.148,35.326,40.851z M85.782,47.069V34.633c3.243,0.219,5.816,2.92,5.816,6.218S89.025,46.85,85.782,47.069
		z"/>
	<g>
		<g>
			<path style="fill:#33363A;" d="M12.221,123.126c-0.672,0-1.284-0.454-1.454-1.136l-5.333-21.307
				c-0.201-0.804,0.287-1.618,1.091-1.819c0.803-0.198,1.618,0.287,1.819,1.091l5.333,21.307c0.201,0.804-0.287,1.618-1.091,1.819
				C12.464,123.111,12.341,123.126,12.221,123.126z"/>
		</g>
		<g>
			<path style="fill:#33363A;" d="M114.703,123.126c-0.121,0-0.243-0.015-0.365-0.045c-0.804-0.201-1.292-1.016-1.091-1.819
				l5.333-21.307c0.201-0.805,1.014-1.289,1.819-1.091c0.804,0.201,1.292,1.016,1.091,1.819l-5.333,21.307
				C115.987,122.672,115.375,123.126,114.703,123.126z"/>
		</g>
	</g>
	<g>
		<g>
			<g>
				<path style="fill:#7BC7FF;" d="M74.071,4.954H52.853c-8.108,0-14.681,6.572-14.681,14.68v13.874h50.58V19.634
					C88.752,11.526,82.18,4.954,74.071,4.954z"/>
			</g>
			<g>
				<path style="fill:#0086FF;" d="M74.071,11.687H52.853c-8.108,0-14.681,6.572-14.681,14.681v7.141h50.58v-7.141
					C88.752,18.259,82.18,11.687,74.071,11.687z"/>
			</g>
			<g>
				<path style="fill:#33363A;" d="M88.752,35.008h-50.58c-0.829,0-1.5-0.672-1.5-1.5V19.634c0-8.922,7.259-16.18,16.181-16.18
					h21.219c8.922,0,16.181,7.258,16.181,16.18v13.874C90.252,34.336,89.581,35.008,88.752,35.008z M39.672,32.008h47.58V19.634
					c0-7.268-5.913-13.18-13.181-13.18H52.853c-7.268,0-13.181,5.912-13.181,13.18V32.008z"/>
			</g>
		</g>
		<path style="fill:#33363A;" d="M69.462,21.098h-12c-0.829,0-1.5,0.672-1.5,1.5v4.67c0,0.828,0.671,1.5,1.5,1.5h12
			c0.829,0,1.5-0.672,1.5-1.5v-4.67C70.962,21.77,70.291,21.098,69.462,21.098z"/>
	</g>
	<g>
		<g>
			<path style="fill:#33363A;" d="M35.024,88.351c-0.704,0-1.332-0.497-1.471-1.213c-0.159-0.813,0.372-1.601,1.186-1.76l12.834-2.5
				c0.813-0.155,1.601,0.373,1.759,1.186c0.159,0.813-0.372,1.601-1.186,1.76l-12.834,2.5
				C35.215,88.342,35.119,88.351,35.024,88.351z"/>
		</g>
		<g>
			<path style="fill:#33363A;" d="M91.9,88.351c-0.095,0-0.191-0.009-0.288-0.027l-12.834-2.5c-0.813-0.159-1.344-0.946-1.186-1.76
				c0.158-0.813,0.945-1.341,1.759-1.186l12.834,2.5c0.813,0.159,1.344,0.946,1.186,1.76C93.231,87.854,92.604,88.351,91.9,88.351z"
				/>
		</g>
	</g>
	<g>
		<g>
			<path style="fill:#FF8F8F;" d="M45.338,114.486c0-10.009,8.115-18.124,18.123-18.124c10.009,0,18.124,8.115,18.124,18.124"/>
		</g>
		<g>
			<path style="fill:#FF1A1A;" d="M45.338,114.486c0-7.662,8.115-13.885,18.123-13.885c10.009,0,18.124,6.223,18.124,13.885"/>
		</g>
		<g>
			<line style="fill:#FFFFFF;" x1="81.585" y1="114.486" x2="45.338" y2="114.486"/>
		</g>
		<g>
			<line style="fill:#DCE6EA;" x1="81.585" y1="114.486" x2="45.338" y2="114.486"/>
		</g>
		<path style="fill:#33363A;" d="M63.461,94.862c-10.82,0-19.623,8.804-19.623,19.624c0,0.828,0.671,1.5,1.5,1.5h36.247
			c0.829,0,1.5-0.672,1.5-1.5C83.085,103.666,74.282,94.862,63.461,94.862z M63.461,97.862c8.66,0,15.786,6.658,16.548,15.124
			H46.914C47.676,104.521,54.802,97.862,63.461,97.862z"/>
		<g>
			<path style="fill:#FFFFFF;" d="M67.698,110.288c2.341,2.339,2.341,6.136,0,8.472c-2.338,2.342-6.133,2.342-8.474,0
				c-2.339-2.336-2.339-6.133,0-8.472C61.565,107.947,65.36,107.947,67.698,110.288z"/>
		</g>
		<g>
			<path style="fill:#D8E5EA;" d="M59.224,118.76c-2.339-2.336-2.339-6.133,0-8.472c2.341-2.341,6.136-2.341,8.474,0"/>
		</g>
		<g>
			<path style="fill:#33363A;" d="M63.462,122.017c-2.001,0-3.883-0.78-5.299-2.196c-1.414-1.412-2.193-3.293-2.193-5.295
				s0.779-3.884,2.193-5.298c1.416-1.416,3.297-2.195,5.298-2.195s3.882,0.779,5.296,2.194l0,0c1.417,1.416,2.196,3.298,2.195,5.301
				c0,2.001-0.78,3.882-2.196,5.294c-1.412,1.414-3.292,2.194-5.293,2.195C63.464,122.017,63.463,122.017,63.462,122.017z
				 M63.462,110.032c-1.2,0-2.328,0.468-3.177,1.316c-0.848,0.848-1.314,1.976-1.314,3.177c0,1.199,0.466,2.327,1.314,3.173
				c0.85,0.851,1.978,1.317,3.178,1.318c0,0,0.001,0,0.001,0c1.199-0.001,2.326-0.469,3.173-1.316
				c0.85-0.849,1.317-1.975,1.317-3.174c0-1.2-0.467-2.329-1.315-3.177c0-0.001-0.001-0.001-0.001-0.002
				C65.789,110.5,64.662,110.032,63.462,110.032z"/>
		</g>
	</g>
</g>
<g>
</g>
<g>
</g>
<g>
</g>
<g>
</g>
<g>
</g>
<g>
</g>
<g>
</g>
<g>
</g>
<g>
</g>
<g>
</g>
<g>
</g>
<g>
</g>
<g>
</g>
<g>
</g>
<g>
</g>
</svg>
